<?xml version="1.0" encoding="utf-8"?>
<svg id="master-artboard" viewBox="0 0 529.07958984375 496.59796142578125" version="1.1" xmlns="http://www.w3.org/2000/svg" x="0px" y="0px" style="enable-background:new 0 0 2000 2000;" width="529.07958984375px" height="496.59796142578125px"><rect id="ee-background" x="0" y="0" width="529.07958984375" height="496.59796142578125" style="fill: white; fill-opacity: 0; pointer-events: none;"/>

<radialGradient id="SVGID_1_" cx="1000.2517" cy="1000.5164" r="653.9938" gradientTransform="matrix(1.8417 0 0 2.1512 -841.9746 -1151.8979)" gradientUnits="userSpaceOnUse">
		<stop offset="0.3997" style="stop-color:#FFFFFF"/>
		<stop offset="0.4636" style="stop-color:#928F8F"/>
		<stop offset="0.5263" style="stop-color:#504D4D"/>
		<stop offset="0.5785" style="stop-color:#2A2928"/>
		<stop offset="0.6183" style="stop-color:#0F0F0F"/>
		<stop offset="0.6409" style="stop-color:#010101"/>
		<stop offset="0.8471" style="stop-color:#101010"/>
	</radialGradient>

<g transform="matrix(1, 0, 0, 1, -832.7658386230469, 34.026207447052)"><g id="g-3" transform="matrix(4.2049241065979, 0, 0, 4.2049241065979, -1646.1424560546875, -189.18991088867188)">
	<g id="g-4">
		<path class="st0" d="M652,46c27.6,0,50,22.4,50,50s-22.4,50-50,50s-50-22.4-50-50S624.4,46,652,46z" style="fill: rgb(79, 83, 86);"/>
	</g>
</g><path class="st28" d="M319.22,261.29v-16.91c0-8.26,5.49-10.16,9.38-10.16c3.84,0,23.72,0,23.72,0v-36.26l-32.66-0.15&#10;&#9;&#9;&#9;&#9;&#9;c-36.31,0-44.52,27.02-44.52,44.33v19.15h-21v25.52v16.77h21.14c0,47.92,0,105.76,0,105.76h42.33c0,0,0-58.42,0-105.76h31.4&#10;&#9;&#9;&#9;&#9;&#9;l1.51-16.62l2.33-25.66H319.22z" style="fill: rgb(255, 255, 255);" transform="matrix(1, 0, 0, 1, 791.973083496094, -92.44198608398438)"/></g><g transform="matrix(1, 0, 0, 1, -1632.6049499511719, 0.0000152587890625)"><g id="g-7" transform="matrix(4.2049241065979, 0, 0, 4.2049241065979, -1150.42529296875, 294.3943481445312)">
	<g id="g-8">
		<path class="st0" d="M652,46c27.6,0,50,22.4,50,50s-22.4,50-50,50s-50-22.4-50-50S624.4,46,652,46z" style="fill: rgb(79, 83, 86);"/>
	</g>
</g><g transform="matrix(0.9999999999999999, 0, 0, 0.9999999999999999, 1291.4510498046875, -71.7915267944336)"><path class="st30" d="M305.39,854.33c-17.74,0-34.22-5.25-48.02-14.34l-33.54,10.64l10.89-32.13&#10;&#9;&#9;&#9;&#9;&#9;&#9;c-10.4-14.29-16.57-31.84-16.57-50.79c0-2.82,0.15-5.64,0.39-8.41c4.28-43.84,41.6-78.2,86.9-78.2c45.83,0,83.5,35.24,87,79.85&#10;&#9;&#9;&#9;&#9;&#9;&#9;c0.15,2.19,0.29,4.47,0.29,6.76C392.73,815.49,353.56,854.33,305.39,854.33L305.39,854.33z M409.16,765.09&#10;&#9;&#9;&#9;&#9;&#9;&#9;c-1.41-55.7-47.29-100.41-103.72-100.41c-55.85,0-101.34,43.69-103.72,98.52c-0.1,1.51-0.15,3.01-0.15,4.52&#10;&#9;&#9;&#9;&#9;&#9;&#9;c0,19.44,5.44,37.67,14.92,53.17l-18.76,55.31l57.5-18.28c14.87,8.16,31.98,12.83,50.21,12.83&#10;&#9;&#9;&#9;&#9;&#9;&#9;c57.3,0,103.82-46.13,103.82-103.04C409.26,766.84,409.21,765.97,409.16,765.09L409.16,765.09z" style="fill-rule: evenodd; clip-rule: evenodd; fill: rgb(255, 255, 255);" transform="matrix(1, 0, 0, 1, 0, -5.684341886080802e-14)"/><path class="st30" d="M350,788.52c-2.58-1.31-15.07-7.39-17.4-8.21c-2.33-0.88-4.03-1.26-5.74,1.26&#10;&#9;&#9;&#9;&#9;&#9;c-1.7,2.53-6.56,8.22-8.07,9.87c-1.46,1.7-2.97,1.9-5.49,0.63c-2.58-1.26-10.74-3.94-20.46-12.54&#10;&#9;&#9;&#9;&#9;&#9;c-7.58-6.66-12.69-14.92-14.19-17.45c-1.46-2.53-0.15-3.89,1.12-5.15c1.17-1.17,2.58-2.97,3.84-4.42&#10;&#9;&#9;&#9;&#9;&#9;c0.39-0.44,0.63-0.83,0.92-1.21c0.63-0.92,1.02-1.85,1.6-3.01c0.88-1.7,0.44-3.16-0.19-4.42c-0.63-1.26-5.73-13.71-7.82-18.76&#10;&#9;&#9;&#9;&#9;&#9;c-2.14-5.05-4.28-4.18-5.74-4.18c-1.51,0-3.21-0.24-4.91-0.24c-1.7,0-4.42,0.63-6.76,3.16c-2.33,2.53-8.94,8.65-8.94,21.09&#10;&#9;&#9;&#9;&#9;&#9;c0,2.92,0.53,5.83,1.31,8.55c2.58,8.94,8.12,16.28,9.09,17.55c1.26,1.65,17.59,27.99,43.5,38.1&#10;&#9;&#9;&#9;&#9;&#9;c25.86,10.11,25.86,6.75,30.52,6.32c4.67-0.39,15.07-6.08,17.21-12c2.09-5.88,2.09-10.94,1.46-12.01&#10;&#9;&#9;&#9;&#9;&#9;C354.23,790.41,352.52,789.78,350,788.52L350,788.52z" style="fill-rule: evenodd; clip-rule: evenodd; fill: rgb(255, 255, 255);" transform="matrix(1, 0, 0, 1, 0, -5.684341886080802e-14)"/></g></g></svg>