<?xml version="1.0" encoding="UTF-8"?>
<!DOCTYPE svg PUBLIC "-//W3C//DTD SVG 1.1//EN" "http://www.w3.org/Graphics/SVG/1.1/DTD/svg11.dtd">
<!-- Creator: CorelDRAW X6 -->
<svg xmlns="http://www.w3.org/2000/svg" xml:space="preserve" width="210mm" height="297mm" version="1.1" style="shape-rendering:geometricPrecision; text-rendering:geometricPrecision; image-rendering:optimizeQuality; fill-rule:evenodd; clip-rule:evenodd"
viewBox="0 0 21000 29700"
 xmlns:xlink="http://www.w3.org/1999/xlink">
 <defs>
  <style type="text/css">
   <![CDATA[
    .fil1 {fill:#834E98}
    .fil0 {fill:#FEFEFE}
    .fil2 {fill:#834E98;fill-rule:nonzero}
   ]]>
  </style>
 </defs>
 <g id="Layer_x0020_1">
  <metadata id="CorelCorpID_0Corel-Layer"/>
  <g id="_736026112">
   <path class="fil0" d="M7305 25995c269,86 308,620 575,685 1632,395 3220,388 4761,-29 365,-99 163,-1896 840,-1194l89 -2945 2292 -1907 433 -2545 -731 -2724 -631 -2226 -1827 -465 -2990 100 -2757 133 -1495 66 -1296 1661 -299 2026 -664 1827 133 1196 -299 1196 -166 997 631 1362 1528 1761 1874 1026z"/>
   <g>
    <path class="fil1" d="M10210 10494c-4576,0 -8287,3710 -8287,8287 0,3661 2374,6768 5667,7863 414,77 566,-180 566,-399 0,-198 -8,-850 -11,-1543 -2305,501 -2792,-978 -2792,-978 -377,-958 -920,-1213 -920,-1213 -752,-514 57,-504 57,-504 832,58 1270,854 1270,854 739,1267 1939,901 2412,689 74,-535 289,-901 526,-1108 -1841,-209 -3776,-920 -3776,-4095 0,-905 324,-1644 854,-2224 -86,-209 -370,-1052 80,-2193 0,0 696,-223 2279,850 661,-184 1370,-276 2074,-279 704,3 1414,95 2076,279 1582,-1072 2277,-850 2277,-850 451,1142 167,1984 81,2193 531,580 853,1320 853,2224 0,3183 -1939,3884 -3784,4089 297,257 562,761 562,1535 0,1109 -10,2001 -10,2274 0,221 149,479 569,398 3291,-1097 5662,-4202 5662,-7862 0,-4577 -3710,-8287 -8287,-8287z"/>
    <path class="fil2" d="M5061 22392c-18,41 -83,54 -142,25 -60,-27 -94,-83 -74,-124 18,-42 83,-54 143,-26 60,27 94,84 74,125z"/>
    <path class="fil2" d="M5397 22766c-40,37 -117,20 -169,-38 -54,-58 -64,-135 -24,-172 41,-37 116,-19 170,38 54,58 65,135 24,172z"/>
    <path class="fil2" d="M5724 23243c-51,35 -134,2 -185,-71 -51,-74 -51,-162 1,-198 51,-35 133,-4 185,70 51,75 51,163 -1,199z"/>
    <path class="fil2" d="M6171 23705c-45,50 -142,37 -213,-32 -72,-67 -93,-162 -47,-212 46,-50 143,-36 215,32 72,67 94,162 45,212z"/>
    <path class="fil2" d="M6789 23972c-20,65 -113,94 -207,67 -94,-28 -155,-104 -136,-170 19,-65 113,-96 208,-67 94,28 155,104 136,170z"/>
    <path class="fil2" d="M7467 24022c2,68 -77,125 -176,126 -99,2 -179,-53 -180,-120 0,-69 78,-125 177,-127 98,-2 179,53 179,121z"/>
    <path class="fil2" d="M8098 23915c12,67 -57,135 -155,153 -96,18 -185,-24 -198,-90 -12,-68 58,-137 154,-155 98,-17 186,23 198,91z"/>
   </g>
  </g>
 </g>
</svg>
